#!OML:ASF E:\Style4\Style4.ASF
:FULLY-SPECIFIED
:DEGREES
886
root -0.0791047 17.77 -1.34826 -0.05977 -0.472262 1.7606
lowerback 5.85405 2.82498 -0.29509
upperback 2.39907 3.74441 0.185928
thorax -0.839004 1.86827 0.113401
lowerneck -3.83915 -5.86057 -6.69913
upperneck 20.8629 -7.83539 2.71787
head 7.40653 -4.02279 1.39703
rclavicle -3.31473e-014 4.77083e-015
rhumerus -6.31123 19.8631 -84.6822
rradius 45.5737
rwrist 21.283
rhand -32.4736 23.8861
rfingers 7.12502
rthumb -5.70599 -6.01705
lclavicle -3.31473e-014 4.77083e-015
lhumerus 7.1076 -43.8137 68.8856
lradius 90.3884
lwrist -16.2963
lhand -26.7143 28.2707
lfingers 7.12502
lthumb -0.144163 58.2503
rfemur -12.9171 3.84787 17.0544
rtibia 32.5276
rfoot -18.2301 -13.1459
rtoes -12.098
lfemur -11.6758 -2.69 -20.3275
ltibia 30.548
lfoot -18.8462 9.39078
ltoes -16.8741
887
root -0.0784994 17.7711 -1.34983 -0.05869 -0.459197 1.84658
lowerback 5.83945 2.91533 -0.386493
upperback 2.3803 3.85969 0.180958
thorax -0.856391 1.92548 0.151686
lowerneck -3.83678 -5.92478 -6.68351
upperneck 20.8223 -7.91163 2.65633
head 7.39382 -4.0626 1.36845
rclavicle 1.38155e-014 -1.11319e-014
rhumerus -5.98306 19.3879 -84.6858
rradius 42.968
rwrist 21.7123
rhand -31.9692 24.195
rfingers 7.12502
rthumb -5.219 -5.7207
lclavicle 1.38155e-014 -1.11319e-014
lhumerus 7.70335 -43.6037 68.6946
lradius 91.358
lwrist -16.5149
lhand -26.8383 28.4989
lfingers 7.12502
lthumb -0.263893 58.4785
rfemur -12.9515 3.82663 16.9497
rtibia 32.5791
rfoot -18.294 -13.1211
rtoes -11.9151
lfemur -11.6443 -2.71264 -20.4312
ltibia 30.4838
lfoot -18.7922 9.42431
ltoes -16.989
888
root -0.0769941 17.7726 -1.35044 -0.0739556 -0.473983 1.95995
lowerback 5.79894 2.97238 -0.517756
upperback 2.39956 3.92889 0.188488
thorax -0.823825 1.95937 0.23064
lowerneck -3.88102 -5.94322 -6.71032
upperneck 20.7415 -7.91877 2.60599
head 7.37491 -4.07122 1.35517
rclavicle -1.61513e-014 -1.27222e-014
rhumerus -5.6367 18.9713 -84.707
rradius 40.519
rwrist 22.5012
rhand -32.0276 24.1493
rfingers 7.12502
rthumb -5.27535 -5.76499
lclavicle -1.61513e-014 -1.27222e-014
lhumerus 8.24312 -43.2954 68.5271
lradius 92.1715
lwrist -16.5691
lhand -27.2274 28.5635
lfingers 7.12502
lthumb -0.639706 58.5423
rfemur -12.9665 3.81126 16.8096
rtibia 32.6289
rfoot -18.329 -13.0477
rtoes -11.7841
lfemur -11.5821 -2.73224 -20.5729
ltibia 30.4134
lfoot -18.7942 9.47475
ltoes -16.9283
889
root -0.0789067 17.7729 -1.34906 -0.0839957 -0.513875 2.01479
lowerback 5.74845 3.02959 -0.6234
upperback 2.40794 3.99996 0.204204
thorax -0.796085 1.99427 0.303854
lowerneck -3.91505 -5.93432 -6.78396
upperneck 20.6699 -7.90231 2.6477
head 7.36161 -4.06476 1.38154
rclavicle 1.95803e-014 -1.59028e-014
rhumerus -5.27787 18.5411 -84.7464
rradius 38.2745
rwrist 22.8618
rhand -31.5194 23.8618
rfingers 7.12502
rthumb -4.78472 -6.06421
lclavicle 1.95803e-014 -1.59028e-014
lhumerus 8.55189 -42.9956 68.5094
lradius 92.8378
lwrist -16.5276
lhand -27.7519 28.5167
lfingers 7.12502
lthumb -1.14626 58.4934
rfemur -12.9753 3.85713 16.757
rtibia 32.6805
rfoot -18.3381 -13.0619
rtoes -11.8252
lfemur -11.5164 -2.69894 -20.6287
ltibia 30.3437
lfoot -18.7966 9.46878
ltoes -16.7356
890
root -0.0808032 17.7733 -1.34738 -0.0517379 -0.489839 2.04272
lowerback 5.6598 3.04266 -0.713052
upperback 2.40275 4.01383 0.23651
thorax -0.760779 2.00061 0.39062
lowerneck -3.98366 -5.91811 -6.85415
upperneck 20.6395 -7.86045 2.61623
head 7.36378 -4.05161 1.38429
rclavicle -2.73329e-014 -1.86858e-014
rhumerus -4.93439 18.1401 -84.7697
rradius 36.2562
rwrist 23.0177
rhand -30.7548 23.6823
rfingers 7.12502
rthumb -4.04637 -6.25898
lclavicle -2.73329e-014 -1.86858e-014
lhumerus 8.60504 -42.62 68.7086
lradius 93.3829
lwrist -16.5291
lhand -28.4752 28.2959
lfingers 7.12502
lthumb -1.84487 58.2677
rfemur -13.0054 3.8672 16.7303
rtibia 32.7188
rfoot -18.4169 -13.041
rtoes -11.621
lfemur -11.521 -2.66575 -20.6473
ltibia 30.3027
lfoot -18.7514 9.45603
ltoes -16.8991
891
root -0.076921 17.7734 -1.34815 0.000520011 -0.440164 2.07256
lowerback 5.59556 3.06475 -0.711058
upperback 2.39263 4.04403 0.245222
thorax -0.736398 2.01569 0.399869
lowerneck -4.11963 -5.94455 -6.88076
upperneck 20.6643 -7.87492 2.56444
head 7.39622 -4.06305 1.36581
rclavicle 2.51463e-014 8.74653e-015
rhumerus -4.76133 17.6966 -84.8113
rradius 34.6064
rwrist 23.2318
rhand -30.2818 23.1716
rfingers 7.12502
rthumb -3.58959 -6.7779
lclavicle 2.51463e-014 8.74653e-015
lhumerus 8.78469 -42.2324 68.8298
lradius 93.7954
lwrist -16.8136
lhand -28.8885 27.8149
lfingers 7.12502
lthumb -2.24407 57.7829
rfemur -13.0844 3.78305 16.673
rtibia 32.7469
rfoot -18.4218 -13.0021
rtoes -11.6033
lfemur -11.5845 -2.73832 -20.6961
ltibia 30.2893
lfoot -18.7356 9.47607
ltoes -16.8424
892
root -0.0728097 17.7734 -1.35038 0.0511187 -0.413132 2.04553
lowerback 5.54542 3.09366 -0.655303
upperback 2.37976 4.08609 0.273968
thorax -0.720565 2.03691 0.398147
lowerneck -4.20545 -5.96069 -6.86098
upperneck 20.5971 -7.87685 2.48839
head 7.38574 -4.06742 1.33567
rclavicle 7.10655e-015 1.98785e-015
rhumerus -4.64635 17.1149 -84.846
rradius 33.2673
rwrist 23.3364
rhand -29.7768 22.7895
rfingers 7.12502
rthumb -3.10187 -7.16769
lclavicle 7.10655e-015 1.98785e-015
lhumerus 8.92472 -41.825 68.9569
lradius 94.1346
lwrist -17.4678
lhand -29.0087 27.5103
lfingers 7.12502
lthumb -2.36014 57.477
rfemur -13.1692 3.73519 16.6852
rtibia 32.7688
rfoot -18.3865 -13.0316
rtoes -11.7584
lfemur -11.6649 -2.79501 -20.6804
ltibia 30.2946
lfoot -18.6707 9.4607
ltoes -16.5881
893
root -0.0726125 17.7729 -1.35103 0.0570679 -0.410696 2.07324
lowerback 5.53943 3.14088 -0.695378
upperback 2.36623 4.14697 0.277599
thorax -0.734985 2.06717 0.420108
lowerneck -4.20164 -5.97051 -6.79829
upperneck 20.4394 -7.88435 2.43889
head 7.32889 -4.06995 1.3107
rclavicle -1.03865e-014 6.75868e-015
rhumerus -4.61628 16.4667 -84.8643
rradius 32.245
rwrist 23.351
rhand -29.477 22.841
rfingers 7.12502
rthumb -2.81234 -7.12016
lclavicle -1.03865e-014 6.75868e-015
lhumerus 9.01414 -41.6172 69.0699
lradius 94.5721
lwrist -17.9077
lhand -29.0479 27.4363
lfingers 7.12502
lthumb -2.39794 57.4025
rfemur -13.189 3.74701 16.6577
rtibia 32.7894
rfoot -18.3483 -13.1136
rtoes -11.8938
lfemur -11.6776 -2.78955 -20.7107
ltibia 30.2974
lfoot -18.631 9.4086
ltoes -16.3377
894
root -0.0714092 17.7724 -1.35055 0.0572188 -0.382622 2.07293
lowerback 5.53309 3.18518 -0.674027
upperback 2.3528 4.2069 0.262077
thorax -0.743356 2.09734 0.388564
lowerneck -4.16007 -5.99964 -6.71964
upperneck 20.289 -7.93498 2.45054
head 7.27152 -4.08743 1.30046
rclavicle 2.4202e-014 -1.07344e-014
rhumerus -4.68897 16.0037 -84.8647
rradius 31.5836
rwrist 23.3292
rhand -29.4757 22.7925
rfingers 7.12502
rthumb -2.81115 -7.16869
lclavicle 2.4202e-014 -1.07344e-014
lhumerus 9.16891 -41.597 69.1372
lradius 95.0868
lwrist -18.0904
lhand -28.8586 27.3533
lfingers 7.12502
lthumb -2.21512 57.3216
rfemur -13.1839 3.73465 16.6536
rtibia 32.7898
rfoot -18.2572 -13.198
rtoes -11.9482
lfemur -11.6842 -2.75916 -20.7153
ltibia 30.3071
lfoot -18.6493 9.45249
ltoes -16.653
895
root -0.0707405 17.7711 -1.35058 0.0338325 -0.327581 2.10154
lowerback 5.55606 3.19425 -0.723944
upperback 2.3526 4.21637 0.272797
thorax -0.760806 2.10181 0.425146
lowerneck -4.1843 -6.00933 -6.73896
upperneck 20.2245 -7.95298 2.5006
head 7.2584 -4.09293 1.31804
rclavicle -3.47873e-014 9.93923e-015
rhumerus -4.79817 15.8575 -84.8057
rradius 31.2716
rwrist 23.1709
rhand -29.718 22.5816
rfingers 7.12502
rthumb -3.04513 -7.37638
lclavicle -3.47873e-014 9.93923e-015
lhumerus 9.17202 -41.5122 69.3158
lradius 95.3808
lwrist -18.2898
lhand -28.8632 27.3439
lfingers 7.12502
lthumb -2.21957 57.3121
rfemur -13.1482 3.74213 16.6235
rtibia 32.7945
rfoot -18.2274 -13.2744
rtoes -11.8646
lfemur -11.6668 -2.77352 -20.7496
ltibia 30.2988
lfoot -18.6666 9.43078
ltoes -16.6837
896
root -0.0688178 17.7705 -1.3502 0.0122703 -0.261692 2.1306
lowerback 5.57451 3.18786 -0.775767
upperback 2.35037 4.20532 0.294007
thorax -0.778472 2.09601 0.474992
lowerneck -4.16647 -6.00892 -6.71658
upperneck 20.1037 -7.9452 2.45813
head 7.21273 -4.09095 1.3033
rclavicle 5.12864e-014 -1.19271e-015
rhumerus -4.98691 15.8814 -84.7
rradius 31.3538
rwrist 22.7545
rhand -29.972 22.3326
rfingers 7.12502
rthumb -3.29043 -7.6218
lclavicle 5.12864e-014 -1.19271e-015
lhumerus 8.99295 -41.3925 69.5884
lradius 95.5032
lwrist -18.45
lhand -29.1032 27.3698
lfingers 7.12502
lthumb -2.45138 57.3355
rfemur -13.101 3.72511 16.5861
rtibia 32.7781
rfoot -18.2985 -13.2444
rtoes -11.7968
lfemur -11.6515 -2.84709 -20.7941
ltibia 30.2976
lfoot -18.6231 9.4269
ltoes -16.5638
897
root -0.0659357 17.7705 -1.34875 -0.00866047 -0.203218 2.18719
lowerback 5.57216 3.17837 -0.826767
upperback 2.35907 4.19018 0.295955
thorax -0.771758 2.08816 0.506663
lowerneck -4.18057 -6.00535 -6.67829
upperneck 20.0005 -7.93066 2.40194
head 7.17688 -4.08537 1.28096
rclavicle -1.91827e-014 -9.54166e-015
rhumerus -5.19699 16.2343 -84.5442
rradius 31.7085
rwrist 22.1704
rhand -30.0874 22.3212
rfingers 7.12502
rthumb -3.40183 -7.63144
lclavicle -1.91827e-014 -9.54166e-015
lhumerus 8.79406 -41.2665 69.8968
lradius 95.4586
lwrist -18.5828
lhand -29.4284 27.313
lfingers 7.12502
lthumb -2.76546 57.2748
rfemur -13.0375 3.68347 16.5104
rtibia 32.7468
rfoot -18.3529 -13.1964
rtoes -12.0248
lfemur -11.6248 -2.90888 -20.8712
ltibia 30.2981
lfoot -18.6518 9.45282
ltoes -16.7843
